<svg xmlns="http://www.w3.org/2000/svg" width="128" height="128" viewBox="0 0 128 128" role="img" aria-label="Hue Forge icon">
  <defs>
    <linearGradient id="g1" x1="64" y1="18" x2="107" y2="49" gradientUnits="userSpaceOnUse">
      <stop offset="0%" stop-color="#FFD25E" />
      <stop offset="50%" stop-color="#BFE05A" />
      <stop offset="100%" stop-color="#53D4D7" />
    </linearGradient>
    <linearGradient id="g2" x1="107" y1="49" x2="90" y2="102" gradientUnits="userSpaceOnUse">
      <stop offset="0%" stop-color="#53D4D7" />
      <stop offset="50%" stop-color="#61B9EE" />
      <stop offset="100%" stop-color="#4A8CFF" />
    </linearGradient>
    <linearGradient id="g3" x1="90" y1="102" x2="38" y2="102" gradientUnits="userSpaceOnUse">
      <stop offset="0%" stop-color="#4A8CFF" />
      <stop offset="50%" stop-color="#8A67EE" />
      <stop offset="100%" stop-color="#FF73A7" />
    </linearGradient>
    <linearGradient id="g4" x1="38" y1="102" x2="21" y2="49" gradientUnits="userSpaceOnUse">
      <stop offset="0%" stop-color="#FF73A7" />
      <stop offset="50%" stop-color="#FF8C9A" />
      <stop offset="100%" stop-color="#FFC08A" />
    </linearGradient>
    <linearGradient id="g5" x1="21" y1="49" x2="64" y2="18" gradientUnits="userSpaceOnUse">
      <stop offset="0%" stop-color="#FFC08A" />
      <stop offset="50%" stop-color="#FFD66C" />
      <stop offset="100%" stop-color="#D9E76B" />
    </linearGradient>
  </defs>

  <rect x="0" y="0" width="128" height="128" rx="30" fill="#131414" />

  <path d="M64 18 Q74 56 107 49" fill="none" stroke="url(#g1)" stroke-width="18" stroke-linecap="round" stroke-opacity="0.96" />
  <path d="M107 49 Q70 78 90 102" fill="none" stroke="url(#g2)" stroke-width="18" stroke-linecap="round" stroke-opacity="0.96" />
  <path d="M90 102 Q64 74 38 102" fill="none" stroke="url(#g3)" stroke-width="18" stroke-linecap="round" stroke-opacity="0.96" />
  <path d="M38 102 Q58 78 21 49" fill="none" stroke="url(#g4)" stroke-width="18" stroke-linecap="round" stroke-opacity="0.96" />
  <path d="M21 49 Q54 56 64 18" fill="none" stroke="url(#g5)" stroke-width="18" stroke-linecap="round" stroke-opacity="0.96" />

  <circle cx="64" cy="18" r="11" fill="#B7E07B" fill-opacity="0.52" />
  <circle cx="107" cy="49" r="11" fill="#57B5F4" fill-opacity="0.52" />
  <circle cx="90" cy="102" r="11" fill="#7D73F4" fill-opacity="0.52" />
  <circle cx="38" cy="102" r="11" fill="#DA66CA" fill-opacity="0.52" />
  <circle cx="21" cy="49" r="11" fill="#FFB780" fill-opacity="0.52" />

  <circle cx="64" cy="18" r="9" fill="#FFFFFF" />
  <circle cx="107" cy="49" r="9" fill="#FFFFFF" />
  <circle cx="90" cy="102" r="9" fill="#FFFFFF" />
  <circle cx="38" cy="102" r="9" fill="#FFFFFF" />
  <circle cx="21" cy="49" r="9" fill="#FFFFFF" />
</svg>
