<svg width="1280" height="640" viewBox="0 0 1280 640" fill="none" xmlns="http://www.w3.org/2000/svg">
  <rect width="1280" height="640" rx="32" fill="#F3F4F6"/>
  <rect x="24" y="24" width="1232" height="592" rx="28" fill="url(#bg)"/>
  <rect x="72" y="72" width="1136" height="496" rx="24" fill="rgba(255,255,255,0.58)" stroke="rgba(255,255,255,0.72)"/>
  <text x="96" y="170" fill="#0F172A" font-family="SFMono-Regular, Consolas, Menlo, monospace" font-size="18" letter-spacing="2">COLOR SYSTEM GENERATOR</text>
  <text x="96" y="252" fill="#0F172A" font-family="Avenir Next, Inter, sans-serif" font-size="84" font-weight="700">Hue Forge</text>
  <text x="96" y="314" fill="#334155" font-family="Avenir Next, Inter, sans-serif" font-size="30">Generate, tune, validate, and export palette systems with WCAG-aware feedback.</text>
  <text x="96" y="374" fill="#475569" font-family="Avenir Next, Inter, sans-serif" font-size="24">HSB curves • contrast checks • Tailwind / Tokens export • AI-ready copy</text>

  <g opacity="0.98">
    <rect x="96" y="444" width="64" height="64" rx="16" fill="#F4F7FB"/>
    <rect x="168" y="444" width="64" height="64" rx="16" fill="#E2ECFF"/>
    <rect x="240" y="444" width="64" height="64" rx="16" fill="#BDD6FF"/>
    <rect x="312" y="444" width="64" height="64" rx="16" fill="#84B8FF"/>
    <rect x="384" y="444" width="64" height="64" rx="16" fill="#458FF6"/>
    <rect x="456" y="444" width="64" height="64" rx="16" fill="#1E62D0"/>
    <rect x="528" y="444" width="64" height="64" rx="16" fill="#143F89"/>
  </g>

  <g opacity="0.98">
    <rect x="766" y="150" width="338" height="290" rx="24" fill="#FFFFFF"/>
    <text x="794" y="196" fill="#0F172A" font-family="SFMono-Regular, Consolas, Menlo, monospace" font-size="18">EXPORT</text>
    <text x="794" y="234" fill="#334155" font-family="Avenir Next, Inter, sans-serif" font-size="20">Current palette snapshot</text>
    <rect x="794" y="266" width="282" height="2" fill="#E2E8F0"/>
    <text x="794" y="316" fill="#0F172A" font-family="SFMono-Regular, Consolas, Menlo, monospace" font-size="18">blue.40 = #93C5FD</text>
    <text x="794" y="350" fill="#0F172A" font-family="SFMono-Regular, Consolas, Menlo, monospace" font-size="18">blue.60 = #1E62D0</text>
    <text x="794" y="384" fill="#0F172A" font-family="SFMono-Regular, Consolas, Menlo, monospace" font-size="18">wcag.onWhite = AA</text>
    <rect x="794" y="410" width="132" height="34" rx="17" fill="#0F172A"/>
    <text x="828" y="433" fill="#F8FAFC" font-family="Avenir Next, Inter, sans-serif" font-size="16">AI Export</text>
  </g>

  <defs>
    <linearGradient id="bg" x1="106" y1="88" x2="1174" y2="592" gradientUnits="userSpaceOnUse">
      <stop stop-color="#FFF8E7"/>
      <stop offset="0.28" stop-color="#ECFCCB"/>
      <stop offset="0.58" stop-color="#DBEAFE"/>
      <stop offset="1" stop-color="#FCE7F3"/>
    </linearGradient>
  </defs>
</svg>
